<?xml version="1.0" encoding="utf-8"?>
<!-- Generator: Adobe Illustrator 21.1.0, SVG Export Plug-In . SVG Version: 6.00 Build 0)  -->
<svg version="1.1"
	 id="svg2" xmlns:cc="http://creativecommons.org/ns#" xmlns:dc="http://purl.org/dc/elements/1.1/" xmlns:rdf="http://www.w3.org/1999/02/22-rdf-syntax-ns#" xmlns:svg="http://www.w3.org/2000/svg"
	 xmlns="http://www.w3.org/2000/svg" xmlns:xlink="http://www.w3.org/1999/xlink" x="0px" y="0px" viewBox="0 0 273.6 75.6"
	 style="enable-background:new 0 0 273.6 75.6;" xml:space="preserve">
<style type="text/css">
	.st0{fill:#CCCCCC;}
</style>
<g id="g10" transform="matrix(1.3333333,0,0,-1.3333333,0,75.586667)">
	<g id="g12" transform="scale(0.1)">
		<path id="path14" class="st0" d="M487.6,239.8l6.7-3.3l-0.7-0.7c-2.2-2.5-3.2-3.8-4.2-6.6c-0.5-1.3-1.1-3.7-0.1-5.6
			c0.5-1,1.4-1.7,2.7-2.1c3-0.9,5.5,1.5,8.5,4.3c4.1,3.9,9.2,8.8,17.5,6.2c8.4-2.7,11.2-9.7,7.8-19.2c-1.1-2.9-3-5.4-4.7-7.7
			l-0.4-0.5l-6.9,3l0.7,0.8c0.8,0.9,3.7,4.1,4.8,7.2c1.1,2.8,1,7.5-3.5,8.9c-3.7,1.2-6.5-1.5-9.8-4.6c-4-3.9-8.5-8.3-16-5.9
			c-3.3,1-5.7,3-7.1,5.6c-1.7,3.2-1.7,7.3-0.2,11.5c1,2.9,2.7,5.8,4.6,8.1L487.6,239.8z M470.7,204.6l39-21.3l-4-6.4l-39.3,21.3
			L470.7,204.6z M455.3,183.6l33.7-28.3l-6.1-6.7c0,0-31.6,8.7-36.4,9.9c3.6-3.2,23.2-22.6,23.2-22.6l-5.9-5L432,161.2l7.5,6.3
			c0,0,30.5-8.5,35.3-9.7c-3.6,3.2-24.6,20.2-24.6,20.2L455.3,183.6z M415.6,118.7c1.2,0.5,4.2,2.1,7.1,3.7c2.7,1.5,4.8,2.8,5.9,3.6
			c-1.6,1.1-13.6,9.7-16.1,11.6C412.9,134.6,415.2,120.5,415.6,118.7z M411.1,146.9l38.7-26.6l-6.9-4.5c0,0-7.8,5.5-8.5,6.1
			c-0.5-0.2-4.4-2.9-8.7-5.3c-4-2.3-8.4-4.3-8.9-4.6c0.2-0.9,1.7-9.9,1.7-9.9l-7.4-3.3l-6.5,44.5L411.1,146.9z M368,121.7
			c0.4-1.2,3.7-11.1,4.1-12.3c1.6,0.4,5.2,1.5,5.2,1.5c1.2,0.3,4,1.4,5.3,3.8c0.4,0.8,0.7,1.7,0.7,2.6c0,0.7-0.2,1.4-0.4,2.2
			c-0.5,1.4-1.4,2.6-2.9,3.2c-2.4,1.2-5.6,0.9-7.7,0.3C372.3,123,369.1,122,368,121.7z M384.5,129.3c2.9-1.4,5.1-4,6.2-7.6
			c0.5-1.5,0.8-3,0.8-4.4c0-5.8-4.4-10.4-12.2-12.8c0,0-4-1.2-5.2-1.5c0.5-1.3,5.2-15.5,5.2-15.5l-7.8-1.9l-13.3,40.3l11.8,3.5
			C376,131.1,380.9,131.1,384.5,129.3z M243.7,137.7c0,0,7.2-3.4,17.5-6.7c7-2.3,12.9-4,18.8-5.3l-2-6.4c0,0-5.6,0.9-14.6,3.5
			c-0.5-1.4-12.3-33-12.3-33l-8.1,2.6c0,0,11.7,31.6,12.2,33c-8.4,3-14.3,5.9-14.3,5.9L243.7,137.7z M195.7,135.2
			c0.8-0.6,3.7-2.8,6.7-4.9c3-2,6.1-3.9,7-4.3c0.4,1.8,3.6,16.4,4.2,19.1C211.1,143.8,197.5,136.2,195.7,135.2z M215.5,154l6.8-4.6
			l-8.8-44.3l-7.8,4.2c0,0,1.9,9,2.2,9.9c-0.4,0.3-4.9,2.8-9.3,5.7c-4.5,3-8.8,6.3-9.2,6.6c-0.8-0.5-9.4-5.2-9.4-5.2l-6.6,5.3
			l41.7,22.1L215.5,154z M183.8,182.2l5.4-6.2l-34.2-26.9l-5.5,6.2l33.9,26.6L183.8,182.2z M159.1,219.9c0,0,3.5-6.9,6.3-11.8
			c2.8-4.9,6.6-10.8,6.6-10.8l-6.2-3.4c0,0-4.7,7.3-9,15.8c-1.2-0.6-8.6-4.2-9.8-4.8c0.7-1.2,8.3-15,8.3-15l-6.3-3.4
			c0,0-7.7,14-8.4,15.2c-1.3-0.6-17.3-8.4-17.3-8.4l-3.8,7.1l39.1,19.1L159.1,219.9z M553.5,284.8c0,65.7-30.8,124.7-79.5,165.1
			l-93.8-224c6.2-36.6-5.3-66-33.3-74.7c-18.1-5.7-19.1-14.3-19.1-39.8c0-1.4,0,1.9,0-3.1c0-18.1,1.5-33.6,2.8-43.3
			C454.4,70.6,553.5,167,553.5,284.8z M320.2,291l1.1,8.3c4.5,19.4,19.5,17,29.9,36c0,0.1,0.2,0.3,0.2,0.3
			c0.3,0.7,51.2,103.3,72.4,146.1c-31.5,14.8-66.9,23.1-104.4,23.1c-37.5,0-73-8.4-104.5-23.1c21.2-42.8,72.1-145.4,72.5-146.1
			c0,0,0.1-0.2,0.2-0.3c10.3-19,25.3-16.6,29.8-36l1.1-8.3H320.2z M319.2,265c-15.8,3.3-35.5,18.1-38.1,37.1
			c-0.9,7.2-1.7,9.2-0.5,23.6l-71.9,153c-5.8-2.9-11.4-6.1-17-9.5c21.5-45.4,87.3-184.1,87.3-184.3c10.4-20.6,28.7-21,35-33.3
			c3.8-7.3,4.1-13.8,4.2-14.3h2.4c0,0.5,0.4,7,4.2,14.3c6.3,12.3,24.6,12.7,35,33.3c0,0.2,65.8,138.9,87.3,184.3
			c-5.5,3.4-11.2,6.6-17,9.5l-71.9-153c1.1-14.3,0.4-16.4-0.6-23.6c-2.6-19-22.3-33.8-38-37.1H319.2z M319.2,207.9
			c-37.3,8.2-51.1,40.1-51.1,68.5L186,465.6c-5.4-3.5-10.6-7.2-15.6-11.1c18.1-40.2,99.1-220.8,99.2-221.1
			c14.3-32.4,40.4-21.7,46.7-48.5c1.5-6.5,1.6-9.3,1.6-9.3h2.8c0,0,0.1,2.8,1.6,9.3c6.3,26.8,32.3,16,46.7,48.5
			c0.1,0.3,81.1,180.9,99.2,221.1c-5,3.9-10.2,7.6-15.6,11.1l-82.1-189.3c0-28.4-13.9-60.3-51.2-68.5H319.2z M308.1,65.1
			c1.4,9.6,2.8,25.1,2.8,43.3c0,5,0,1.7,0,3.1c0,25.5-1,34.2-19.1,39.8c-28,8.7-39.5,38.1-33.3,74.7l-93.7,224
			c-48.8-40.4-79.5-99.4-79.5-165.1C85.1,167,184.2,70.6,308.1,65.1z M466.4,320.9c0,19.1,5,34.7,19.4,34.7
			c14.5,0,19.7-15.6,19.7-34.7c0-19.1-5.2-34.7-19.7-34.7C471.4,286.2,466.4,301.8,466.4,320.9z M440.8,320.9
			c0-29.3,14.5-51.6,45-51.6c30.6,0,45.2,22.3,45.2,51.6c0,29.3-14.6,51.6-45.2,51.6C455.2,372.5,440.8,350.2,440.8,320.9z
			 M329.5,418.6h-22.1l10.3,43.4h1.7L329.5,418.6z M340.1,379.4h25.3L336,479.1h-32.4l-30.5-99.7h23.5l6.7,22.3H334L340.1,379.4z
			 M120,271.1h24v41.7h40.4v17.5h-40.4v23.2h41.7v17.4H120V271.1z M318.3,382.4c0.3,0,21.4-21.2,21.4-38.1
			c0-18.4-15.2-22.7-20.4-22.7c-0.3,0-0.6,0-0.9,0.1h-0.2c-0.3,0-0.7-0.1-0.9-0.1c-5.1,0-20.4,4.4-20.4,22.7
			C296.9,361.2,317.9,382.4,318.3,382.4z M319.3,37.5C174.1,37.5,56,148.5,56,284.8c0,136.4,118.1,247.4,263.3,247.4
			c145.2,0,263.3-111,263.3-247.4C582.6,148.5,464.5,37.5,319.3,37.5"/>
		<path id="path16" class="st0" d="M680.1,480.2h52.4V466h-33.4v-26.5h31.9v-14.2h-31.9v-42.4h-19V480.2"/>
		<path id="path18" class="st0" d="M774.1,394c11.9,0,14.6,12.8,14.6,24.8c0,12-2.7,24.7-14.6,24.7c-11.9,0-14.7-12.7-14.7-24.7
			C759.4,406.8,762.2,394,774.1,394z M774.1,455.8c15.6,0,33.6-7.7,33.6-37c0-30.1-18-37.1-33.6-37.1s-33.7,7-33.7,37.1
			C740.4,448.1,758.5,455.8,774.1,455.8"/>
		<path id="path20" class="st0" d="M853.8,394c11.9,0,14.6,12.8,14.6,24.8c0,12-2.7,24.7-14.6,24.7c-11.9,0-14.7-12.7-14.7-24.7
			C839.1,406.8,841.9,394,853.8,394z M853.8,455.8c15.6,0,33.6-7.7,33.6-37c0-30.1-18-37.1-33.6-37.1c-15.6,0-33.7,7-33.7,37.1
			C820.1,448.1,838.2,455.8,853.8,455.8"/>
		<path id="path22" class="st0" d="M931.8,394.4c10.8,0,14.5,11,14.5,24.6c0,14-4.2,24.1-14.3,24.1c-10.2,0-13.8-9.3-13.8-23.7
			C918.3,402.8,921.1,394.4,931.8,394.4z M964.7,487.5v-92.4c0-5.2,0.2-9.6,0.6-12.3h-17.2c-0.3,2.1-0.6,6.3-0.6,11.2h-0.5
			c-3-6.1-8.5-12.3-20.4-12.3c-19,0-26.9,17-26.9,37c0,23.4,9.9,37.1,26.4,37.1c11,0,17.1-5.9,19.8-11.4h0.3v43.1H964.7"/>
		<path id="path24" class="st0" d="M1060.2,418h-1.6c-15.8,0-25.1-3.1-25.1-13.5c0-6.6,4.6-11,11.7-11c11,0,15,7.7,15,20.5V418z
			 M1023.9,450.5c5.2,2.2,12.5,5.3,24.2,5.3c23.8,0,29.3-10.9,29.3-28.9v-31.4c0-5.2,0.6-9.9,1-12.7h-16.6c-0.9,2.8-1,6.3-1,9.8
			h-0.3c-4.6-5.9-10.4-10.9-21.4-10.9c-11.9,0-22.9,7.7-22.9,21.1c0,19.5,16.9,24.4,40.2,24.4h3.7v2.7c0,7.1-3.7,13.7-14.3,13.7
			c-9.2,0-17.4-4.2-20.9-7L1023.9,450.5"/>
		<path id="path26" class="st0" d="M1094.5,442.8c0,4.5-0.1,8.7-0.6,11.9h17.2c0.2-3.6,0.6-7.4,0.6-11h0.3
			c2.7,4.3,7.9,12.1,20.3,12.1c17.4,0,22.6-12.1,22.6-26.6v-46.3h-18.4v43.1c0,11-3,15.6-10.6,15.6c-9.6,0-13.1-7.7-13.1-16.9v-41.9
			h-18.4L1094.5,442.8"/>
		<path id="path28" class="st0" d="M1201.4,394.4c10.8,0,14.5,11,14.5,24.6c0,14-4.2,24.1-14.3,24.1c-10.2,0-13.8-9.3-13.8-23.7
			C1187.9,402.8,1190.7,394.4,1201.4,394.4L1201.4,394.4z M1234.3,487.5v-92.4c0-5.2,0.1-9.6,0.6-12.3h-17.2
			c-0.3,2.1-0.6,6.3-0.6,11.2h-0.5c-3-6.1-8.5-12.3-20.3-12.3c-19,0-26.9,17-26.9,37c0,23.4,9.9,37.1,26.4,37.1
			c11,0,17.1-5.9,19.8-11.4h0.3v43.1H1234.3"/>
		<path id="path30" class="st0" d="M1332.3,419.9l-13.1,45.5h-0.3l-14.3-45.5H1332.3z M1336.3,406.3h-35.6l-7.4-23.4h-19l34.8,97.4
			h20.8l33.4-97.4h-19.6L1336.3,406.3"/>
		<path id="path32" class="st0" d="M1401.4,395.5c11.6,0,16.2,7.8,16.2,24.1c0,15.1-6.1,23.2-14.9,23c-9.7-0.1-13.4-8.5-13.4-23.2
			C1389.3,402.6,1395.1,395.5,1401.4,395.5z M1374.8,371.6c4.3-2.2,12.9-6.1,22.6-6.1c17.4,0,20.2,11.3,20.2,22.6v6.8h-0.3
			c-3-5.6-8.2-12.1-20.2-12.1c-10.7,0-26.7,6.7-26.7,35.7c0,19.8,7.6,37.3,27.6,37.3c11.1,0,16.3-6,20.2-12.3h0.6
			c0,3.8,0.5,7.4,0.6,11.2h16.6c-0.3-3.8-0.6-7.5-0.6-11.3v-53c0-22.5-7.3-38.5-35.4-38.5c-12.2,0-21.8,2.9-26.3,4.5L1374.8,371.6"
			/>
		<path id="path34" class="st0" d="M1452.7,442.8c0,4.5-0.2,8.7-0.6,11.9h16.6c0.1-4.3,0.6-8.8,0.6-13.1h0.3
			c2.2,5.6,8,14.2,19.4,14.2c1.2,0,2.1-0.3,3.1-0.4v-16.2c-1.6,0.4-3.3,0.7-5.2,0.7c-7.6,0-15.9-4.3-15.9-17.7v-39.3h-18.4V442.8"/>
		<path id="path36" class="st0" d="M1506.2,454.7h18.4v-71.9h-18.4V454.7z M1505.9,485.2h19v-17h-19V485.2"/>
		<path id="path38" class="st0" d="M1595,384.6c-4.3-1.5-10.7-2.9-18.1-2.9c-25.3,0-35.9,16.6-35.9,37c0,20.5,11.3,37.1,37,37.1
			c5.8,0,12.6-1.7,16.1-2.9l-1-13.7c-3.3,1.5-7.9,3.5-12.9,3.5c-14,0-20-8.8-20-24.1c0-13.4,6.8-23.7,20.9-23.7
			c4.4,0,10.5,2,13.1,3.5L1595,384.6"/>
		<path id="path40" class="st0" d="M1666.7,394.7c0-4.5,0.1-8.7,0.6-11.9H1650c-0.1,3.6-0.6,7.4-0.6,11l-0.4,0.1l0.1-0.1
			c-3.6-5.3-8.3-12.1-20.4-12.1c-17.4,0-22.6,12.1-22.6,26.7v46.3h18.4v-43.1c0-11,3.3-15.6,11-15.6c9.8,0,12.6,8.4,12.6,17.6v41.2
			h18.4L1666.7,394.7"/>
		<path id="path42" class="st0" d="M1685.1,487.5h18.4V382.8h-18.4V487.5"/>
		<path id="path44" class="st0" d="M1728.7,469.5l18.4,5.3v-20.1h15.3V442h-15.3v-37.3c0-7.7,3-9.9,8.3-9.9c3.3,0,5.6,0.8,7,1.5
			v-12.3c-2.8-1.3-6.8-2.4-12.3-2.4c-13.7,0-21.4,5.9-21.4,20.9V442h-12.2v12.7h12.2L1728.7,469.5"/>
		<path id="path46" class="st0" d="M1834.6,394.7c0-4.5,0.1-8.7,0.6-11.9h-17.2c-0.1,3.6-0.6,7.4-0.6,11l-0.4,0.1l0.2-0.1
			c-3.6-5.3-8.3-12.1-20.4-12.1c-17.4,0-22.6,12.1-22.6,26.7v46.3h18.4v-43.1c0-11,3.3-15.6,11-15.6c9.8,0,12.6,8.4,12.6,17.6v41.2
			h18.4L1834.6,394.7"/>
		<path id="path48" class="st0" d="M1851.8,442.8c0,4.5-0.2,8.7-0.6,11.9h16.6c0.1-4.3,0.6-8.8,0.6-13.1h0.3
			c2.2,5.6,8,14.2,19.4,14.2c1.2,0,2.1-0.3,3.1-0.4v-16.2c-1.6,0.4-3.3,0.7-5.2,0.7c-7.6,0-15.9-4.3-15.9-17.7v-39.3h-18.4V442.8"/>
		<path id="path50" class="st0" d="M1944.1,424.9c0,12.7-4.5,19.1-12.8,19.1c-9.6,0-13.7-9.6-13.7-19.1H1944.1z M1958.1,386.3
			c-3.9-1.5-11.9-4.6-22.9-4.6c-24.7,0-35.4,16.6-35.4,36c0,21.5,12,38.1,31.5,38.1c16.5,0,30.6-9.1,30.6-38.4v-3.3h-44.3
			c0-12.3,5.2-19.7,19.4-19.7c11.3,0,16.6,3.2,20,5.6L1958.1,386.3"/>
		<path id="path52" class="st0" d="M717.2,237.4c12,0,21.7,9.6,21.7,36.4c0,26.8-9.7,36.4-21.7,36.4s-21.7-9.6-21.7-36.4
			C695.6,247.1,705.2,237.4,717.2,237.4z M717.2,323.9c21.5,0,41.3-15.1,41.3-50.1c0-35-19.8-50.1-41.3-50.1
			c-21.5,0-41.3,15.1-41.3,50.1C676,308.9,695.7,323.9,717.2,323.9"/>
		<path id="path54" class="st0" d="M774.2,285.2c0,4.5-0.1,8.7-0.6,11.9h16.6c0.2-4.3,0.6-8.8,0.6-13.1h0.3
			c2.2,5.6,8,14.2,19.5,14.2c1.2,0,2.1-0.3,3.1-0.4v-16.2c-1.6,0.4-3.3,0.7-5.2,0.7c-7.6,0-15.9-4.3-15.9-17.7v-39.3h-18.4V285.2"/>
		<path id="path56" class="st0" d="M853.4,237.8c11.6,0,16.2,7.8,16.2,24.1c0,15.1-6.1,23.2-14.8,23c-9.7-0.1-13.4-8.5-13.4-23.2
			C841.3,245,847.1,237.8,853.4,237.8z M826.8,214c4.3-2.2,12.9-6.1,22.6-6.1c17.4,0,20.2,11.3,20.2,22.6v6.8h-0.3
			c-3-5.6-8.2-12.1-20.2-12.1c-10.7,0-26.7,6.7-26.7,35.7c0,19.8,7.6,37.3,27.6,37.3c11.1,0,16.3-6,20.2-12.3h0.6
			c0,3.8,0.4,7.4,0.6,11.2H888c-0.3-3.8-0.6-7.5-0.6-11.3v-53c0-22.5-7.3-38.5-35.4-38.5c-12.2,0-21.8,2.9-26.3,4.5L826.8,214"/>
		<path id="path58" class="st0" d="M944.1,260.3h-1.6c-15.7,0-25.1-3.1-25.1-13.5c0-6.6,4.6-11,11.7-11c11,0,15,7.7,15,20.5V260.3z
			 M907.8,292.8c5.2,2.2,12.5,5.3,24.2,5.3c23.8,0,29.3-10.9,29.3-28.9v-31.4c0-5.2,0.6-9.9,1-12.7h-16.6c-0.9,2.8-1,6.3-1,9.8h-0.3
			C939.8,229.1,934,224,923,224c-11.9,0-22.9,7.7-22.9,21.1c0,19.5,16.9,24.4,40.2,24.4h3.7v2.7c0,7.1-3.7,13.7-14.3,13.7
			c-9.2,0-17.4-4.2-20.9-7L907.8,292.8"/>
		<path id="path60" class="st0" d="M978.4,285.2c0,4.5-0.1,8.7-0.6,11.9H995c0.1-3.6,0.6-7.4,0.6-11h0.3c2.7,4.3,7.9,12.1,20.4,12.1
			c17.4,0,22.6-12.1,22.6-26.7v-46.3h-18.4v43.1c0,11-3,15.6-10.6,15.6c-9.6,0-13.1-7.7-13.1-16.9v-41.9h-18.4L978.4,285.2"/>
		<path id="path62" class="st0" d="M1057.2,297h18.4v-71.9h-18.4V297z M1056.9,327.6h19v-17h-19V327.6"/>
		<path id="path64" class="st0" d="M1089.9,240.1l32.7,43.8h-31.6V297h50.1v-14.8l-32.1-44h33.1v-13.1h-52.1V240.1"/>
		<path id="path66" class="st0" d="M1194.4,260.3h-1.6c-15.7,0-25.1-3.1-25.1-13.5c0-6.6,4.6-11,11.7-11c11,0,15,7.7,15,20.5V260.3z
			 M1158.2,292.8c5.2,2.2,12.5,5.3,24.2,5.3c23.8,0,29.3-10.9,29.3-28.9v-31.4c0-5.2,0.6-9.9,1-12.7H1196c-0.9,2.8-1,6.3-1,9.8h-0.3
			c-4.6-5.9-10.4-10.9-21.4-10.9c-11.9,0-22.9,7.7-22.9,21.1c0,19.5,16.9,24.4,40.2,24.4h3.7v2.7c0,7.1-3.7,13.7-14.3,13.7
			c-9.2,0-17.4-4.2-20.9-7L1158.2,292.8"/>
		<path id="path68" class="st0" d="M1235.5,311.8l18.4,5.3V297h15.3v-12.7h-15.3v-37.3c0-7.7,3-9.9,8.3-9.9c3.3,0,5.6,0.8,7,1.5
			v-12.3c-2.8-1.3-6.8-2.4-12.3-2.4c-13.7,0-21.4,5.9-21.4,20.9v39.4h-12.2V297h12.2L1235.5,311.8"/>
		<path id="path70" class="st0" d="M1282.7,297h18.4v-71.9h-18.4V297z M1282.4,327.6h19v-17h-19V327.6"/>
		<path id="path72" class="st0" d="M1351.2,236.3c11.9,0,14.6,12.8,14.6,24.8c0,12-2.7,24.7-14.6,24.7c-11.9,0-14.7-12.7-14.7-24.7
			C1336.5,249.2,1339.3,236.3,1351.2,236.3z M1351.2,298.1c15.6,0,33.6-7.7,33.6-37c0-30.1-18-37.1-33.6-37.1
			c-15.6,0-33.7,7-33.7,37.1C1317.5,290.5,1335.6,298.1,1351.2,298.1"/>
		<path id="path74" class="st0" d="M1399.3,285.2c0,4.5-0.1,8.7-0.6,11.9h17.2c0.1-3.6,0.6-7.4,0.6-11h0.3
			c2.7,4.3,7.9,12.1,20.4,12.1c17.4,0,22.6-12.1,22.6-26.7v-46.3h-18.4v43.1c0,11-3,15.6-10.6,15.6c-9.7,0-13.1-7.7-13.1-16.9v-41.9
			h-18.4L1399.3,285.2"/>
		<path id="path76" class="st0" d="M1546.5,236.3c11.9,0,14.6,12.8,14.6,24.8c0,12-2.7,24.7-14.6,24.7c-11.9,0-14.7-12.7-14.7-24.7
			C1531.8,249.2,1534.7,236.3,1546.5,236.3z M1546.5,298.1c15.6,0,33.6-7.7,33.6-37c0-30.1-18-37.1-33.6-37.1
			c-15.6,0-33.7,7-33.7,37.1C1512.8,290.5,1531,298.1,1546.5,298.1"/>
		<path id="path78" class="st0" d="M1600.6,284.3h-12.8V297h12.8v14.6c0,10.3,5.2,19.8,22,19.8c4.9,0,9.7-1,13.2-1.7l-0.7-12.6
			c-2.2,0.6-4.6,1.1-7.3,1.1c-5.4,0-8.8-3.5-8.8-8.9V297h14v-12.7h-14v-59.2h-18.4L1600.6,284.3"/>
		<path id="path80" class="st0" d="M1689.5,311.8l18.4,5.3V297h15.3v-12.7h-15.3v-37.3c0-7.7,3-9.9,8.3-9.9c3.3,0,5.6,0.8,7,1.5
			v-12.3c-2.8-1.3-6.8-2.4-12.3-2.4c-13.7,0-21.4,5.9-21.4,20.9v39.4h-12.2V297h12.2L1689.5,311.8"/>
		<path id="path82" class="st0" d="M1734.9,329.8h18.4v-42h0.4c3.3,4.5,7.6,10.3,19,10.3c17.4,0,22.6-12.1,22.6-26.7v-46.3H1777
			v43.1c0,11-3,15.6-10.5,15.6c-9.7,0-13.1-7.7-13.1-16.9v-41.9h-18.4L1734.9,329.8"/>
		<path id="path84" class="st0" d="M1854.2,267.3c0,12.7-4.5,19.1-12.8,19.1c-9.6,0-13.7-9.6-13.7-19.1H1854.2z M1868.1,228.6
			c-3.9-1.5-11.9-4.6-22.9-4.6c-24.7,0-35.4,16.6-35.4,36c0,21.5,12,38.1,31.5,38.1c16.5,0,30.6-9.1,30.6-38.4v-3.3h-44.3
			c0-12.3,5.2-19.7,19.4-19.7c11.3,0,16.6,3.2,20,5.6L1868.1,228.6"/>
		<path id="path86" class="st0" d="M698.2,164.9v-63.1c0-16.2,5.2-21.5,16.3-21.5c10.8,0,16.2,5.3,16.2,21.5v63.1h19v-63.1
			c0-25.7-15.7-35.7-35.2-35.7c-19.6,0-35.4,10.1-35.4,35.7v63.1H698.2"/>
		<path id="path88" class="st0" d="M768.1,127.5c0,4.5-0.1,8.7-0.6,11.9h17.2c0.2-3.6,0.6-7.4,0.6-11h0.3
			c2.7,4.3,7.9,12.1,20.3,12.1c17.4,0,22.6-12.1,22.6-26.6V67.5h-18.4v43.1c0,11-3,15.6-10.5,15.6c-9.6,0-13.1-7.7-13.1-16.9V67.5
			h-18.4L768.1,127.5"/>
		<path id="path90" class="st0" d="M847,139.4h18.4V67.5H847V139.4z M846.7,169.9h19v-17h-19V169.9"/>
		<path id="path92" class="st0" d="M890.6,154.1l18.4,5.3v-20.1h15.3v-12.7h-15.3V89.4c0-7.7,3-9.9,8.3-9.9c3.3,0,5.6,0.8,7,1.5
			V68.7c-2.8-1.3-6.8-2.4-12.3-2.4c-13.7,0-21.4,5.9-21.4,20.9v39.4h-12.2v12.7h12.2V154.1"/>
		<path id="path94" class="st0" d="M978.2,109.6c0,12.7-4.5,19.1-12.8,19.1c-9.6,0-13.7-9.6-13.7-19.1H978.2z M992.2,71
			c-3.9-1.5-11.9-4.6-22.9-4.6c-24.7,0-35.3,16.6-35.3,36c0,21.5,12,38.1,31.5,38.1c16.5,0,30.6-9.1,30.6-38.4v-3.3h-44.3
			c0-12.3,5.2-19.7,19.5-19.7c11.3,0,16.6,3.2,20,5.6L992.2,71"/>
		<path id="path96" class="st0" d="M1040.1,79.1c10.8,0,14.5,11,14.5,24.6c0,14-4.2,24.1-14.3,24.1c-10.3,0-13.8-9.3-13.8-23.7
			C1026.6,87.4,1029.4,79.1,1040.1,79.1L1040.1,79.1z M1073.1,172.1V79.8c0-5.2,0.2-9.6,0.6-12.3h-17.2c-0.3,2.1-0.6,6.3-0.6,11.2
			h-0.5c-3-6.1-8.5-12.3-20.4-12.3c-19,0-26.9,17-26.9,37c0,23.4,9.9,37.1,26.4,37.1c11,0,17.1-5.8,19.8-11.4h0.3v43.1H1073.1"/>
		<path id="path98" class="st0" d="M1131.1,164.9h22.6l34.5-76.5h0.3v76.5h17.2V67.5H1183l-34.3,75.9h-0.3V67.5h-17.2V164.9"/>
		<path id="path100" class="st0" d="M1264.8,102.7h-1.6c-15.7,0-25.1-3.1-25.1-13.5c0-6.6,4.6-11,11.7-11c11,0,15,7.7,15,20.5V102.7
			z M1228.5,135.2c5.2,2.2,12.5,5.3,24.2,5.3c23.8,0,29.3-10.9,29.3-28.9V80.2c0-5.2,0.6-9.9,1-12.7h-16.6c-0.9,2.8-1,6.3-1,9.8
			h-0.3c-4.6-5.9-10.4-10.9-21.4-10.9c-11.9,0-22.9,7.7-22.9,21.1c0,19.5,16.9,24.4,40.2,24.4h3.7v2.7c0,7.1-3.7,13.7-14.3,13.7
			c-9.2,0-17.4-4.2-20.9-7L1228.5,135.2"/>
		<path id="path102" class="st0" d="M1305.9,154.1l18.4,5.3v-20.1h15.3v-12.7h-15.3V89.4c0-7.7,3-9.9,8.3-9.9c3.3,0,5.6,0.8,7,1.5
			V68.7c-2.8-1.3-6.8-2.4-12.3-2.4c-13.7,0-21.4,5.9-21.4,20.9v39.4h-12.2v12.7h12.2L1305.9,154.1"/>
		<path id="path104" class="st0" d="M1353.1,139.4h18.4V67.5h-18.4V139.4z M1352.8,169.9h19v-17h-19V169.9"/>
		<path id="path106" class="st0" d="M1421.5,78.7c11.9,0,14.6,12.8,14.6,24.8s-2.7,24.7-14.6,24.7c-11.9,0-14.7-12.7-14.7-24.7
			S1409.7,78.7,1421.5,78.7z M1421.5,140.5c15.6,0,33.6-7.7,33.6-37c0-30.1-18-37.1-33.6-37.1s-33.7,7-33.7,37.1
			C1387.8,132.8,1405.9,140.5,1421.5,140.5"/>
		<path id="path108" class="st0" d="M1469.6,127.5c0,4.5-0.1,8.7-0.6,11.9h17.2c0.1-3.6,0.6-7.4,0.6-11h0.3
			c2.7,4.3,7.9,12.1,20.4,12.1c17.4,0,22.6-12.1,22.6-26.6V67.5h-18.4v43.1c0,11-3,15.6-10.6,15.6c-9.7,0-13.1-7.7-13.1-16.9V67.5
			h-18.4L1469.6,127.5"/>
		<path id="path110" class="st0" d="M1544.6,84.2c3-1.1,10.5-4.7,19.2-4.7c6.7,0,11.9,1.5,11.9,7.1c0,2.8-1.5,5.4-8.2,9.1l-7.6,4.2
			c-7.7,4.3-16.2,8.9-16.2,20.2c0,9.9,10.3,20.4,26.4,20.4c9.8,0,17.4-2.4,19.2-2.9l-1-13.4c-4.6,1.7-9.5,3.2-16.2,3.2
			c-7.4,0-10.5-2.6-10.5-7c0-3.9,3.3-6,8.6-9.2l9.1-5.4c9.5-5.7,14.3-9.8,14.3-18.1c0-13.3-11.9-21.2-28.5-21.2
			c-9.5,0-17.4,2.1-21.2,3.5L1544.6,84.2"/>
	</g>
</g>
</svg>
