<?xml version="1.0" encoding="UTF-8" standalone="no"?>
<svg
   xmlns:dc="http://purl.org/dc/elements/1.1/"
   xmlns:cc="http://creativecommons.org/ns#"
   xmlns:rdf="http://www.w3.org/1999/02/22-rdf-syntax-ns#"
   xmlns:svg="http://www.w3.org/2000/svg"
   xmlns="http://www.w3.org/2000/svg"
   viewBox="0 0 273.60001 75.58667"
   height="75.58667"
   width="273.60001"
   xml:space="preserve"
   id="svg2"
   version="1.1"><metadata
     id="metadata8"><rdf:RDF><cc:Work
         rdf:about=""><dc:format>image/svg+xml</dc:format><dc:type
           rdf:resource="http://purl.org/dc/dcmitype/StillImage" /></cc:Work></rdf:RDF></metadata><defs
     id="defs6" /><g
     transform="matrix(1.3333333,0,0,-1.3333333,0,75.586667)"
     id="g10"><g
       transform="scale(0.1)"
       id="g12"><path
         id="path14"
         style="fill:#ffffff;fill-opacity:1;fill-rule:nonzero;stroke:none"
         d="m 464.672,231.879 7.207,-3.742 -0.719,-0.848 c -2.347,-2.844 -3.394,-4.316 -4.504,-7.519 -0.547,-1.465 -1.211,-4.258 -0.109,-6.375 0.531,-1.114 1.496,-1.926 2.871,-2.364 3.211,-1.086 5.969,1.707 9.141,4.942 4.437,4.507 9.933,10.074 18.82,7.086 9.023,-3.067 12.09,-11.102 8.359,-22.047 -1.133,-3.34 -3.203,-6.184 -5.101,-8.821 l -0.446,-0.566 -7.453,3.469 0.746,0.875 c 0.887,1.054 4,4.691 5.164,8.304 1.133,3.172 1.024,8.551 -3.808,10.176 -3.996,1.387 -7.012,-1.711 -10.516,-5.316 -4.258,-4.481 -9.136,-9.531 -17.191,-6.785 -3.535,1.191 -6.188,3.445 -7.676,6.433 -1.816,3.664 -1.883,8.332 -0.187,13.215 1.066,3.289 2.886,6.68 4.984,9.309 z m -18.219,-40.34 42.039,-24.375 -4.277,-7.383 -42.258,24.453 z m -16.586,-24.16 36.293,-32.383 -6.535,-7.656 c 0,0 -34.027,9.937 -39.191,11.324 3.836,-3.668 24.949,-25.926 24.949,-25.926 l -6.375,-5.754 -34.199,34.746 8.035,7.192 c 0,0 32.836,-9.797 38,-11.156 -3.836,3.636 -26.496,23.129 -26.496,23.129 z M 387.086,93.0586 c 1.242,0.5977 4.473,2.3633 7.684,4.2891 2.863,1.7382 5.156,3.1753 6.316,4.0933 -1.688,1.278 -14.691,11.161 -17.387,13.25 0.547,-3.39 3.055,-19.5191 3.387,-21.6324 z m -4.773,32.3044 41.625,-30.4919 -7.399,-5.207 c 0,0 -8.359,6.3554 -9.191,6.9726 -0.496,-0.2656 -4.782,-3.3086 -9.41,-6.0469 -4.36,-2.6367 -9.083,-4.9687 -9.555,-5.2421 0.203,-1.086 1.828,-11.293 1.828,-11.293 l -7.949,-3.7969 -6.985,51.0272 z M 335.867,96.5078 c 0.41,-1.414 3.946,-12.707 4.363,-14.0898 1.758,0.5156 5.598,1.7383 5.598,1.7383 1.274,0.3789 4.277,1.5703 5.711,4.3125 0.469,0.8984 0.719,1.8984 0.719,2.9335 0,0.7891 -0.164,1.6016 -0.41,2.4688 -0.547,1.6602 -1.551,2.9297 -3.071,3.7187 -2.589,1.3868 -6.066,1.0313 -8.254,0.3829 0,0 -3.468,-1.086 -4.656,-1.4649 z m 17.828,8.7112 c 3.153,-1.653 5.438,-4.59 6.68,-8.7424 0.555,-1.7657 0.859,-3.4453 0.859,-5.0743 0,-6.7031 -4.695,-11.9726 -13.171,-14.6328 0,0 -4.278,-1.3281 -5.547,-1.707 0.504,-1.5234 5.547,-17.7812 5.547,-17.7812 l -8.418,-2.1719 -14.27,46.2306 12.754,3.965 c 6.375,1.976 11.672,1.953 15.566,-0.086 z m -151.609,9.66 c 0,0 7.785,-3.879 18.828,-7.649 7.531,-2.609 13.934,-4.64 20.203,-6.027 l -2.187,-7.3046 c 0,0 -5.985,1.0586 -15.723,4.0469 -0.562,-1.6015 -13.223,-37.7851 -13.223,-37.7851 l -8.671,3.0078 c 0,0 12.617,36.2422 13.164,37.82 -9.082,3.391 -15.391,6.758 -15.391,6.758 z m -51.641,-2.875 c 0.86,-0.731 3.981,-3.258 7.207,-5.563 3.282,-2.285 6.571,-4.453 7.536,-4.886 0.464,2.113 3.832,18.812 4.523,21.906 -2.731,-1.629 -17.332,-10.313 -19.266,-11.457 z m 21.285,21.555 7.286,-5.215 -9.442,-50.762 -8.359,4.8047 c 0,0 2.098,10.3438 2.344,11.3477 -0.411,0.3242 -5.274,3.2344 -9.996,6.5706 -4.797,3.422 -9.465,7.277 -9.907,7.578 -0.906,-0.547 -10.148,-6.004 -10.148,-6.004 l -7.153,6.105 44.907,25.301 z m -34.117,32.277 5.856,-7.063 -36.821,-30.781 -5.964,7.059 36.488,30.488 z m -26.601,43.16 c 0,0 3.722,-7.926 6.758,-13.543 3.007,-5.625 7.125,-12.41 7.125,-12.41 l -6.657,-3.879 c 0,0 -5.054,8.41 -9.687,18.133 -1.27,-0.652 -9.2463,-4.805 -10.5666,-5.457 0.7656,-1.414 8.9416,-17.156 8.9416,-17.156 l -6.738,-3.879 c 0,0 -8.2817,16.093 -8.9966,17.453 -1.4336,-0.707 -18.6328,-9.582 -18.6328,-9.582 l -4.1094,8.172 42.0938,21.906 z m 424.597,74.457 c 0,75.274 -33.175,142.891 -85.593,189.176 L 349,215.941 c 6.715,-41.933 -5.715,-75.597 -35.879,-85.586 -19.535,-6.484 -20.617,-16.367 -20.617,-45.6323 0,-1.5743 0,2.2031 0,-3.5 0,-20.7969 1.574,-38.5508 3.008,-49.6016 133.449,6.3047 240.097,116.8399 240.097,251.8319 z m -251.218,7.086 1.183,9.555 c 4.891,22.207 21.004,19.433 32.192,41.23 0.05,0.086 0.187,0.332 0.187,0.332 0.332,0.817 55.117,118.356 77.977,167.43 -33.867,16.941 -72.047,26.523 -112.45,26.523 -40.378,0 -78.582,-9.582 -112.472,-26.523 22.855,-49.074 77.613,-166.613 78.058,-167.43 0,0 0.106,-0.246 0.164,-0.332 11.125,-21.797 27.211,-19.023 32.102,-41.23 l 1.184,-9.555 z m -1.075,-29.781 c -17.031,3.805 -38.253,20.719 -41.015,42.488 -0.996,8.274 -1.797,10.586 -0.578,27.031 l -77.45,175.305 c -6.23,-3.363 -12.308,-7.004 -18.265,-10.883 23.156,-52.039 93.949,-210.996 94.004,-211.191 11.203,-23.59 30.855,-24.051 37.64,-38.113 4.09,-8.332 4.453,-15.793 4.504,-16.395 h 2.594 c 0.051,0.602 0.469,8.063 4.496,16.395 6.817,14.062 26.473,14.523 37.652,38.113 0.051,0.195 70.872,159.152 94.004,211.191 -5.879,3.879 -12.011,7.52 -18.273,10.883 L 325.27,330.277 c 1.21,-16.445 0.41,-18.757 -0.665,-27.031 -2.757,-21.769 -23.992,-38.683 -40.929,-42.488 z m 0.051,-65.473 c -40.152,9.367 -55.062,45.957 -55.062,78.449 l -88.371,216.895 c -5.77,-3.992 -11.371,-8.254 -16.789,-12.676 19.445,-46.066 106.675,-253.082 106.793,-253.379 15.429,-37.187 43.523,-24.863 50.312,-55.566 1.629,-7.434 1.738,-10.692 1.738,-10.692 h 3.008 c 0,0 0.059,3.258 1.738,10.692 6.789,30.703 34.805,18.379 50.262,55.566 0.109,0.297 87.352,207.313 106.758,253.379 -5.41,4.422 -10.984,8.684 -16.785,12.676 l -88.34,-216.895 c 0,-32.492 -14.934,-69.082 -55.098,-78.449 z M 271.391,31.6211 c 1.515,11.0508 3.007,28.8047 3.007,49.6016 0,5.7031 0,1.9257 0,3.5 0,29.2653 -1.074,39.1483 -20.613,45.6323 -30.168,9.989 -42.508,43.653 -35.887,85.586 L 116.969,472.629 C 64.4727,426.344 31.3555,358.727 31.3555,283.453 31.3555,148.461 138.031,37.9258 271.391,31.6211 Z M 441.793,324.82 c 0,21.934 5.379,39.774 20.895,39.774 15.566,0 21.167,-17.84 21.167,-39.774 0,-21.933 -5.601,-39.789 -21.167,-39.789 -15.516,0 -20.895,17.856 -20.895,39.789 z m -27.547,0 c 0,-33.574 15.567,-59.093 48.442,-59.093 32.953,0 48.691,25.519 48.691,59.093 0,33.582 -15.738,59.098 -48.691,59.098 -32.875,0 -48.442,-25.516 -48.442,-59.098 z M 294.496,436.691 H 270.73 l 11.071,49.7 h 1.816 z m 11.34,-44.898 h 27.273 L 301.414,506.07 H 266.559 L 233.715,391.793 h 25.254 l 7.258,25.543 h 33.066 z M 68.9414,267.688 h 25.8633 v 47.773 h 43.4493 v 20.004 H 94.8047 v 26.551 h 44.8793 v 19.949 H 68.9414 Z m 213.4566,127.55 c 0.368,0 23.028,-24.265 23.028,-43.703 0,-21.039 -16.399,-26.062 -21.946,-26.062 -0.281,0 -0.613,0.031 -0.964,0.058 h -0.219 c -0.359,-0.027 -0.727,-0.058 -0.965,-0.058 -5.519,0 -21.945,5.023 -21.945,26.062 0,19.438 22.601,43.703 23.011,43.703 z M 283.48,0 C 127.184,0 0,127.152 0,283.453 0,439.758 127.184,566.934 283.48,566.934 439.773,566.934 566.93,439.758 566.93,283.453 566.93,127.152 439.773,0 283.48,0" /><path
         id="path16"
         style="fill:#ffffff;fill-opacity:1;fill-rule:nonzero;stroke:none"
         d="m 671.914,507.348 h 56.449 v -16.317 h -35.98 v -30.383 h 34.379 V 444.34 h -34.379 v -48.606 h -20.469 v 111.614" /><path
         id="path18"
         style="fill:#ffffff;fill-opacity:1;fill-rule:nonzero;stroke:none"
         d="m 773.098,408.527 c 12.8,0 15.675,14.711 15.675,28.457 0,13.75 -2.875,28.305 -15.675,28.305 -12.785,0 -15.828,-14.555 -15.828,-28.305 0,-13.746 3.043,-28.457 15.828,-28.457 z m 0,70.832 c 16.789,0 36.144,-8.796 36.144,-42.375 0,-34.531 -19.355,-42.535 -36.144,-42.535 -16.789,0 -36.289,8.004 -36.289,42.535 0,33.579 19.5,42.375 36.289,42.375" /><path
         id="path20"
         style="fill:#ffffff;fill-opacity:1;fill-rule:nonzero;stroke:none"
         d="m 858.93,408.527 c 12.8,0 15.679,14.711 15.679,28.457 0,13.75 -2.879,28.305 -15.679,28.305 -12.785,0 -15.825,-14.555 -15.825,-28.305 0,-13.746 3.04,-28.457 15.825,-28.457 z m 0,70.832 c 16.793,0 36.148,-8.796 36.148,-42.375 0,-34.531 -19.355,-42.535 -36.148,-42.535 -16.789,0 -36.289,8.004 -36.289,42.535 0,33.579 19.5,42.375 36.289,42.375" /><path
         id="path22"
         style="fill:#ffffff;fill-opacity:1;fill-rule:nonzero;stroke:none"
         d="m 942.852,409.008 c 11.668,0 15.664,12.629 15.664,28.137 0,15.992 -4.485,27.664 -15.352,27.664 -11.035,0 -14.863,-10.715 -14.863,-27.188 0,-19.023 3.039,-28.613 14.551,-28.613 z m 35.492,106.656 V 409.801 c 0,-5.91 0.164,-11.028 0.64,-14.067 h -18.546 c -0.321,2.395 -0.633,7.192 -0.633,12.793 h -0.489 c -3.195,-7.039 -9.113,-14.078 -21.91,-14.078 -20.468,0 -28.929,19.512 -28.929,42.379 0,26.86 10.703,42.531 28.457,42.531 11.836,0 18.386,-6.711 21.269,-13.113 h 0.313 v 49.418 h 19.828" /><path
         id="path24"
         style="fill:#ffffff;fill-opacity:1;fill-rule:nonzero;stroke:none"
         d="m 1081.12,436.027 h -1.76 c -16.96,0 -27.03,-3.523 -27.03,-15.507 0,-7.516 4.97,-12.633 12.64,-12.633 11.83,0 16.15,8.797 16.15,23.496 z m -39.03,37.258 c 5.61,2.559 13.44,6.074 26.08,6.074 25.58,0 31.5,-12.472 31.5,-33.097 v -35.977 c 0,-5.918 0.64,-11.355 1.11,-14.551 h -17.91 c -0.95,3.196 -1.11,7.192 -1.11,11.192 h -0.33 c -4.95,-6.715 -11.18,-12.477 -23.02,-12.477 -12.8,0 -24.62,8.797 -24.62,24.149 0,22.382 18.23,27.98 43.32,27.98 h 4.01 v 3.043 c 0,8.149 -4.01,15.668 -15.35,15.668 -9.93,0 -18.7,-4.797 -22.55,-7.992 l -1.13,15.988" /><path
         id="path26"
         style="fill:#ffffff;fill-opacity:1;fill-rule:nonzero;stroke:none"
         d="m 1118.02,464.488 c 0,5.117 -0.16,9.918 -0.64,13.594 h 18.54 c 0.17,-4.16 0.64,-8.477 0.64,-12.637 h 0.33 c 2.88,4.961 8.47,13.914 21.9,13.914 18.71,0 24.31,-13.914 24.31,-30.539 v -53.086 h -19.82 v 49.407 c 0,12.629 -3.21,17.91 -11.37,17.91 -10.38,0 -14.06,-8.797 -14.06,-19.348 v -47.969 h -19.83 v 68.754" /><path
         id="path28"
         style="fill:#ffffff;fill-opacity:1;fill-rule:nonzero;stroke:none"
         d="m 1233.12,409.008 c 11.67,0 15.66,12.629 15.66,28.137 0,15.992 -4.48,27.664 -15.35,27.664 -11.03,0 -14.86,-10.715 -14.86,-27.188 0,-19.023 3.04,-28.613 14.55,-28.613 z m 35.49,106.656 V 409.801 c 0,-5.91 0.16,-11.028 0.63,-14.067 h -18.53 c -0.32,2.395 -0.64,7.192 -0.64,12.793 h -0.49 c -3.19,-7.039 -9.11,-14.078 -21.9,-14.078 -20.47,0 -28.94,19.512 -28.94,42.379 0,26.86 10.71,42.531 28.46,42.531 11.84,0 18.39,-6.711 21.27,-13.113 h 0.31 v 49.418 h 19.83" /><path
         id="path30"
         style="fill:#ffffff;fill-opacity:1;fill-rule:nonzero;stroke:none"
         d="m 1374.1,438.266 -14.08,52.129 h -0.31 l -15.35,-52.129 z m 4.31,-15.664 h -38.37 l -7.99,-26.868 h -20.47 L 1349,507.348 h 22.38 l 35.98,-111.614 h -21.11 l -7.84,26.868" /><path
         id="path32"
         style="fill:#ffffff;fill-opacity:1;fill-rule:nonzero;stroke:none"
         d="m 1448.41,410.285 c 12.47,0 17.42,8.957 17.42,27.66 0,17.266 -6.55,26.543 -15.99,26.383 -10.39,-0.156 -14.39,-9.754 -14.39,-26.543 0,-19.344 6.24,-27.5 12.96,-27.5 z m -28.63,-27.344 c 4.64,-2.558 13.91,-7.039 24.31,-7.039 18.7,0 21.74,12.957 21.74,25.907 v 7.836 h -0.31 c -3.2,-6.399 -8.79,-13.911 -21.76,-13.911 -11.51,0 -28.76,7.676 -28.76,40.93 0,22.707 8.15,42.695 29.73,42.695 12,0 17.59,-6.875 21.74,-14.07 h 0.64 c 0,4.316 0.49,8.477 0.65,12.793 h 17.9 c -0.31,-4.316 -0.63,-8.637 -0.63,-12.953 v -60.762 c 0,-25.746 -7.83,-44.137 -38.06,-44.137 -13.12,0 -23.51,3.36 -28.3,5.118 l 1.11,17.593" /><path
         id="path34"
         style="fill:#ffffff;fill-opacity:1;fill-rule:nonzero;stroke:none"
         d="m 1503.71,464.488 c 0,5.117 -0.17,9.918 -0.64,13.594 h 17.9 c 0.16,-4.961 0.63,-10.078 0.63,-15.031 h 0.33 c 2.4,6.394 8.63,16.308 20.94,16.308 1.29,0 2.24,-0.32 3.37,-0.476 v -18.555 c -1.77,0.485 -3.53,0.801 -5.61,0.801 -8.15,0 -17.1,-4.953 -17.1,-20.305 v -45.09 h -19.82 v 68.754" /><path
         id="path36"
         style="fill:#ffffff;fill-opacity:1;fill-rule:nonzero;stroke:none"
         d="m 1561.24,478.082 h 19.83 v -82.348 h -19.83 z m -0.31,35.02 h 20.47 V 493.59 h -20.47 v 19.512" /><path
         id="path38"
         style="fill:#ffffff;fill-opacity:1;fill-rule:nonzero;stroke:none"
         d="m 1656.85,397.809 c -4.63,-1.758 -11.52,-3.36 -19.51,-3.36 -27.19,0 -38.7,19.031 -38.7,42.379 0,23.5 12.15,42.531 39.81,42.531 6.25,0 13.6,-1.921 17.28,-3.359 l -1.13,-15.672 c -3.51,1.758 -8.47,4 -13.91,4 -15.03,0 -21.58,-10.074 -21.58,-27.664 0,-15.344 7.35,-27.18 22.55,-27.18 4.79,0 11.34,2.239 14.07,3.996 l 1.12,-15.671" /><path
         id="path40"
         style="fill:#ffffff;fill-opacity:1;fill-rule:nonzero;stroke:none"
         d="m 1734.06,409.328 c 0,-5.117 0.16,-9.918 0.64,-13.594 h -18.56 c -0.16,4.161 -0.64,8.477 -0.64,12.629 l -0.47,0.164 0.16,-0.164 c -3.84,-6.074 -8.96,-13.914 -21.91,-13.914 -18.71,0 -24.3,13.914 -24.3,30.547 v 53.086 h 19.82 v -49.414 c 0,-12.629 3.52,-17.902 11.83,-17.902 10.56,0 13.6,9.597 13.6,20.144 v 47.172 h 19.83 v -68.754" /><path
         id="path42"
         style="fill:#ffffff;fill-opacity:1;fill-rule:nonzero;stroke:none"
         d="m 1753.85,515.664 h 19.82 v -119.93 h -19.82 v 119.93" /><path
         id="path44"
         style="fill:#ffffff;fill-opacity:1;fill-rule:nonzero;stroke:none"
         d="m 1800.85,495.031 19.83,6.078 v -23.027 h 16.46 v -14.551 h -16.46 v -42.695 c 0,-8.793 3.19,-11.352 8.94,-11.352 3.52,0 6.08,0.961 7.52,1.762 v -14.074 c -3.04,-1.438 -7.35,-2.723 -13.27,-2.723 -14.71,0 -23.02,6.719 -23.02,23.992 v 45.09 h -13.12 v 14.551 h 13.12 v 16.949" /><path
         id="path46"
         style="fill:#ffffff;fill-opacity:1;fill-rule:nonzero;stroke:none"
         d="m 1914.83,409.328 c 0,-5.117 0.15,-9.918 0.64,-13.594 h -18.56 c -0.16,4.161 -0.63,8.477 -0.63,12.629 l -0.48,0.164 0.17,-0.164 c -3.85,-6.074 -8.96,-13.914 -21.93,-13.914 -18.7,0 -24.28,13.914 -24.28,30.547 v 53.086 h 19.82 v -49.414 c 0,-12.629 3.52,-17.902 11.82,-17.902 10.56,0 13.6,9.597 13.6,20.144 v 47.172 h 19.83 v -68.754" /><path
         id="path48"
         style="fill:#ffffff;fill-opacity:1;fill-rule:nonzero;stroke:none"
         d="m 1933.35,464.488 c 0,5.117 -0.17,9.918 -0.64,13.594 h 17.9 c 0.16,-4.961 0.64,-10.078 0.64,-15.031 h 0.32 c 2.4,6.394 8.64,16.308 20.94,16.308 1.29,0 2.25,-0.32 3.37,-0.476 v -18.555 c -1.76,0.485 -3.52,0.801 -5.61,0.801 -8.14,0 -17.1,-4.953 -17.1,-20.305 v -45.09 h -19.82 v 68.754" /><path
         id="path50"
         style="fill:#ffffff;fill-opacity:1;fill-rule:nonzero;stroke:none"
         d="m 2032.78,444.02 c 0,14.55 -4.81,21.91 -13.76,21.91 -10.38,0 -14.7,-11.035 -14.7,-21.91 z m 15.02,-44.29 c -4.15,-1.757 -12.79,-5.281 -24.61,-5.281 -26.55,0 -38.06,19.031 -38.06,41.258 0,24.621 12.95,43.652 33.89,43.652 17.75,0 32.94,-10.39 32.94,-43.976 v -3.836 h -47.64 c 0,-14.063 5.59,-22.539 20.94,-22.539 12.15,0 17.9,3.68 21.58,6.394 l 0.96,-15.672" /><path
         id="path52"
         style="fill:#ffffff;fill-opacity:1;fill-rule:nonzero;stroke:none"
         d="m 711.887,229.117 c 12.949,0 23.347,11.035 23.347,41.738 0,30.704 -10.398,41.739 -23.347,41.739 -12.949,0 -23.348,-11.035 -23.348,-41.739 0,-30.703 10.399,-41.738 23.348,-41.738 z m 0,99.141 c 23.179,0 44.445,-17.266 44.445,-57.403 0,-40.136 -21.266,-57.402 -44.445,-57.402 -23.188,0 -44.453,17.266 -44.453,57.402 0,40.137 21.265,57.403 44.453,57.403" /><path
         id="path54"
         style="fill:#ffffff;fill-opacity:1;fill-rule:nonzero;stroke:none"
         d="m 773.246,283.813 c 0,5.117 -0.16,9.914 -0.641,13.593 h 17.907 c 0.164,-4.961 0.64,-10.078 0.64,-15.035 h 0.325 c 2.402,6.395 8.628,16.313 20.945,16.313 1.289,0 2.234,-0.321 3.363,-0.477 v -18.555 c -1.762,0.481 -3.527,0.801 -5.605,0.801 -8.16,0 -17.106,-4.957 -17.106,-20.305 v -45.093 h -19.828 v 68.758" /><path
         id="path56"
         style="fill:#ffffff;fill-opacity:1;fill-rule:nonzero;stroke:none"
         d="m 858.441,229.602 c 12.477,0 17.426,8.957 17.426,27.668 0,17.265 -6.551,26.543 -15.984,26.378 -10.403,-0.156 -14.391,-9.75 -14.391,-26.543 0,-19.347 6.231,-27.503 12.949,-27.503 z m -28.628,-27.34 c 4.644,-2.559 13.917,-7.035 24.312,-7.035 18.707,0 21.742,12.953 21.742,25.894 v 7.84 h -0.308 c -3.204,-6.398 -8.797,-13.906 -21.758,-13.906 -11.512,0 -28.778,7.672 -28.778,40.933 0,22.707 8.161,42.696 29.743,42.696 11.996,0 17.589,-6.875 21.742,-14.071 h 0.648 c 0,4.317 0.481,8.477 0.641,12.793 h 17.906 c -0.312,-4.316 -0.64,-8.64 -0.64,-12.957 v -60.765 c 0,-25.739 -7.833,-44.129 -38.059,-44.129 -13.113,0 -23.508,3.359 -28.305,5.117 l 1.114,17.59" /><path
         id="path58"
         style="fill:#ffffff;fill-opacity:1;fill-rule:nonzero;stroke:none"
         d="m 956.113,255.348 h -1.765 c -16.953,0 -27.024,-3.52 -27.024,-15.512 0,-7.516 4.965,-12.633 12.637,-12.633 11.836,0 16.152,8.797 16.152,23.504 z m -39.023,37.261 c 5.605,2.559 13.437,6.075 26.074,6.075 25.586,0 31.504,-12.477 31.504,-33.102 v -35.98 c 0,-5.918 0.637,-11.356 1.113,-14.547 h -17.922 c -0.945,3.191 -1.113,7.187 -1.113,11.187 h -0.32 c -4.957,-6.715 -11.188,-12.476 -23.024,-12.476 -12.797,0 -24.625,8.797 -24.625,24.148 0,22.391 18.235,27.988 43.332,27.988 h 4.004 v 3.039 c 0,8.153 -4.004,15.672 -15.351,15.672 -9.922,0 -18.707,-4.797 -22.547,-7.996 l -1.125,15.992" /><path
         id="path60"
         style="fill:#ffffff;fill-opacity:1;fill-rule:nonzero;stroke:none"
         d="m 993.012,283.813 c 0,5.117 -0.16,9.914 -0.629,13.593 h 18.537 c 0.16,-4.16 0.63,-8.476 0.63,-12.636 h 0.33 c 2.88,4.96 8.47,13.914 21.91,13.914 18.71,0 24.31,-13.914 24.31,-30.543 v -53.086 h -19.83 v 49.41 c 0,12.629 -3.21,17.906 -11.37,17.906 -10.38,0 -14.06,-8.793 -14.06,-19.348 v -47.968 h -19.828 v 68.758" /><path
         id="path62"
         style="fill:#ffffff;fill-opacity:1;fill-rule:nonzero;stroke:none"
         d="m 1077.89,297.406 h 19.82 v -82.351 h -19.82 z m -0.31,35.012 h 20.46 v -19.504 h -20.46 v 19.504" /><path
         id="path64"
         style="fill:#ffffff;fill-opacity:1;fill-rule:nonzero;stroke:none"
         d="m 1113.05,232.16 35.19,50.211 h -34.07 v 15.035 h 53.9 v -16.953 l -34.55,-50.371 h 35.66 v -15.027 h -56.13 v 17.105" /><path
         id="path66"
         style="fill:#ffffff;fill-opacity:1;fill-rule:nonzero;stroke:none"
         d="m 1225.6,255.348 h -1.77 c -16.94,0 -27.02,-3.52 -27.02,-15.512 0,-7.516 4.95,-12.633 12.64,-12.633 11.83,0 16.15,8.797 16.15,23.504 z m -39.02,37.261 c 5.6,2.559 13.43,6.075 26.07,6.075 25.59,0 31.51,-12.477 31.51,-33.102 v -35.98 c 0,-5.918 0.63,-11.356 1.11,-14.547 h -17.91 c -0.96,3.191 -1.12,7.187 -1.12,11.187 h -0.33 c -4.95,-6.715 -11.18,-12.476 -23.02,-12.476 -12.8,0 -24.62,8.797 -24.62,24.148 0,22.391 18.23,27.988 43.33,27.988 h 4 v 3.039 c 0,8.153 -4,15.672 -15.35,15.672 -9.92,0 -18.72,-4.797 -22.55,-7.996 l -1.12,15.992" /><path
         id="path68"
         style="fill:#ffffff;fill-opacity:1;fill-rule:nonzero;stroke:none"
         d="m 1269.86,314.352 19.83,6.082 v -23.028 h 16.46 v -14.551 h -16.46 v -42.703 c 0,-8.793 3.19,-11.351 8.94,-11.351 3.52,0 6.08,0.961 7.52,1.762 v -14.075 c -3.04,-1.433 -7.36,-2.722 -13.27,-2.722 -14.72,0 -23.02,6.718 -23.02,23.992 v 45.097 h -13.12 v 14.551 h 13.12 v 16.946" /><path
         id="path70"
         style="fill:#ffffff;fill-opacity:1;fill-rule:nonzero;stroke:none"
         d="m 1320.68,297.406 h 19.82 v -82.351 h -19.82 z m -0.31,35.012 h 20.46 v -19.504 h -20.46 v 19.504" /><path
         id="path72"
         style="fill:#ffffff;fill-opacity:1;fill-rule:nonzero;stroke:none"
         d="m 1394.38,227.844 c 12.79,0 15.67,14.711 15.67,28.461 0,13.75 -2.88,28.308 -15.67,28.308 -12.79,0 -15.83,-14.558 -15.83,-28.308 0,-13.75 3.04,-28.461 15.83,-28.461 z m 0,70.84 c 16.79,0 36.14,-8.797 36.14,-42.379 0,-34.535 -19.35,-42.539 -36.14,-42.539 -16.8,0 -36.3,8.004 -36.3,42.539 0,33.582 19.5,42.379 36.3,42.379" /><path
         id="path74"
         style="fill:#ffffff;fill-opacity:1;fill-rule:nonzero;stroke:none"
         d="m 1446.15,283.813 c 0,5.117 -0.16,9.914 -0.63,13.593 h 18.54 c 0.16,-4.16 0.64,-8.476 0.64,-12.636 h 0.32 c 2.88,4.96 8.47,13.914 21.91,13.914 18.7,0 24.31,-13.914 24.31,-30.543 v -53.086 h -19.83 v 49.41 c 0,12.629 -3.21,17.906 -11.36,17.906 -10.39,0 -14.06,-8.793 -14.06,-19.348 v -47.968 h -19.84 v 68.758" /><path
         id="path76"
         style="fill:#ffffff;fill-opacity:1;fill-rule:nonzero;stroke:none"
         d="m 1604.72,227.844 c 12.8,0 15.68,14.711 15.68,28.461 0,13.75 -2.88,28.308 -15.68,28.308 -12.78,0 -15.82,-14.558 -15.82,-28.308 0,-13.75 3.04,-28.461 15.82,-28.461 z m 0,70.84 c 16.79,0 36.15,-8.797 36.15,-42.379 0,-34.535 -19.36,-42.539 -36.15,-42.539 -16.78,0 -36.29,8.004 -36.29,42.539 0,33.582 19.51,42.379 36.29,42.379" /><path
         id="path78"
         style="fill:#ffffff;fill-opacity:1;fill-rule:nonzero;stroke:none"
         d="m 1662.9,282.855 h -13.75 v 14.551 h 13.75 v 16.789 c 0,11.825 5.59,22.703 23.66,22.703 5.27,0 10.39,-1.121 14.23,-1.921 l -0.8,-14.387 c -2.39,0.637 -4.96,1.281 -7.83,1.281 -5.76,0 -9.44,-3.996 -9.44,-10.234 v -14.231 h 15.03 v -14.551 h -15.03 v -67.8 h -19.82 v 67.8" /><path
         id="path80"
         style="fill:#ffffff;fill-opacity:1;fill-rule:nonzero;stroke:none"
         d="m 1758.64,314.352 19.83,6.082 v -23.028 h 16.46 v -14.551 h -16.46 v -42.703 c 0,-8.793 3.19,-11.351 8.94,-11.351 3.52,0 6.08,0.961 7.52,1.762 v -14.075 c -3.04,-1.433 -7.36,-2.722 -13.27,-2.722 -14.72,0 -23.02,6.718 -23.02,23.992 v 45.097 h -13.11 v 14.551 h 13.11 v 16.946" /><path
         id="path82"
         style="fill:#ffffff;fill-opacity:1;fill-rule:nonzero;stroke:none"
         d="m 1807.54,334.977 h 19.83 v -48.125 h 0.48 c 3.51,5.117 8.16,11.832 20.47,11.832 18.69,0 24.3,-13.914 24.3,-30.543 v -53.086 h -19.83 v 49.41 c 0,12.629 -3.21,17.906 -11.35,17.906 -10.39,0 -14.07,-8.793 -14.07,-19.348 v -47.968 h -19.83 v 119.922" /><path
         id="path84"
         style="fill:#ffffff;fill-opacity:1;fill-rule:nonzero;stroke:none"
         d="m 1935.91,263.344 c 0,14.551 -4.8,21.906 -13.76,21.906 -10.38,0 -14.7,-11.035 -14.7,-21.906 z m 15.02,-44.297 c -4.15,-1.758 -12.78,-5.281 -24.61,-5.281 -26.55,0 -38.06,19.031 -38.06,41.265 0,24.621 12.95,43.653 33.89,43.653 17.75,0 32.94,-10.391 32.94,-43.981 v -3.832 h -47.64 c 0,-14.07 5.59,-22.547 20.94,-22.547 12.15,0 17.9,3.68 21.58,6.395 l 0.96,-15.672" /><path
         id="path86"
         style="fill:#ffffff;fill-opacity:1;fill-rule:nonzero;stroke:none"
         d="M 691.418,145.988 V 73.707 c 0,-18.5468 5.594,-24.625 17.59,-24.625 11.676,0 17.43,6.0782 17.43,24.625 v 72.281 h 20.464 V 73.707 c 0,-29.4179 -16.953,-40.9375 -37.894,-40.9375 -21.11,0 -38.063,11.5196 -38.063,40.9375 v 72.281 h 20.473" /><path
         id="path88"
         style="fill:#ffffff;fill-opacity:1;fill-rule:nonzero;stroke:none"
         d="m 766.688,103.137 c 0,5.117 -0.161,9.914 -0.633,13.586 h 18.539 c 0.164,-4.153 0.64,-8.469 0.64,-12.629 h 0.325 c 2.879,4.961 8.468,13.902 21.906,13.902 18.707,0 24.312,-13.902 24.312,-30.5312 V 34.3711 h -19.836 v 49.4141 c 0,12.6328 -3.203,17.9098 -11.355,17.9098 -10.387,0 -14.063,-8.7927 -14.063,-19.3473 V 34.3711 h -19.835 v 68.7659" /><path
         id="path90"
         style="fill:#ffffff;fill-opacity:1;fill-rule:nonzero;stroke:none"
         d="m 851.563,116.723 h 19.828 V 34.3711 h -19.828 z m -0.313,35.019 h 20.469 V 132.23 H 851.25 v 19.512" /><path
         id="path92"
         style="fill:#ffffff;fill-opacity:1;fill-rule:nonzero;stroke:none"
         d="m 898.563,133.668 19.828,6.082 v -23.027 h 16.464 V 102.18 H 918.391 V 59.4766 c 0,-8.7969 3.191,-11.3555 8.945,-11.3555 3.516,0 6.082,0.9609 7.519,1.7656 V 35.8125 c -3.039,-1.4414 -7.355,-2.7266 -13.273,-2.7266 -14.707,0 -23.019,6.7188 -23.019,23.9922 V 102.18 h -13.11 v 14.543 h 13.11 v 16.945" /><path
         id="path94"
         style="fill:#ffffff;fill-opacity:1;fill-rule:nonzero;stroke:none"
         d="m 992.883,82.668 c 0,14.5508 -4.809,21.906 -13.762,21.906 -10.387,0 -14.703,-11.0349 -14.703,-21.906 z M 1007.9,38.3711 c -4.15,-1.7578 -12.779,-5.2852 -24.615,-5.2852 -26.547,0 -38.058,19.0352 -38.058,41.2657 0,24.625 12.949,43.6444 33.894,43.6444 17.754,0 32.939,-10.383 32.939,-43.9687 v -3.8359 h -47.642 c 0,-14.0703 5.594,-22.543 20.941,-22.543 12.153,0 17.901,3.6758 21.581,6.3907 l 0.96,-15.668" /><path
         id="path96"
         style="fill:#ffffff;fill-opacity:1;fill-rule:nonzero;stroke:none"
         d="m 1059.53,47.6484 c 11.67,0 15.66,12.6289 15.66,28.1446 0,15.9883 -4.48,27.66 -15.35,27.66 -11.04,0 -14.86,-10.7147 -14.86,-27.1874 0,-19.0273 3.03,-28.6172 14.55,-28.6172 z m 35.48,106.6526 V 48.4375 c 0,-5.9062 0.17,-11.0234 0.64,-14.0664 h -18.54 c -0.32,2.3984 -0.63,7.1914 -0.63,12.793 h -0.49 c -3.19,-7.0352 -9.11,-14.0782 -21.91,-14.0782 -20.47,0 -28.94,19.5157 -28.94,42.3868 0,26.8633 10.71,42.5233 28.47,42.5233 11.83,0 18.39,-6.703 21.27,-13.101 h 0.31 v 49.406 h 19.82" /><path
         id="path98"
         style="fill:#ffffff;fill-opacity:1;fill-rule:nonzero;stroke:none"
         d="m 1157.5,145.988 h 24.3 l 37.09,-87.6325 h 0.33 v 87.6325 h 18.54 V 34.3711 h -24.46 l -36.95,86.9879 h -0.31 V 34.3711 H 1157.5 V 145.988" /><path
         id="path100"
         style="fill:#ffffff;fill-opacity:1;fill-rule:nonzero;stroke:none"
         d="m 1301.36,74.6719 h -1.77 c -16.93,0 -27.02,-3.5235 -27.02,-15.5156 0,-7.5118 4.95,-12.6329 12.64,-12.6329 11.84,0 16.15,8.8008 16.15,23.5079 z m -39.02,37.2581 c 5.6,2.554 13.44,6.066 26.07,6.066 25.59,0 31.51,-12.465 31.51,-33.0897 V 48.9219 c 0,-5.918 0.63,-11.3516 1.11,-14.5508 h -17.9 c -0.97,3.1992 -1.13,7.1914 -1.13,11.1914 h -0.33 c -4.95,-6.7148 -11.18,-12.4766 -23.02,-12.4766 -12.8,0 -24.62,8.8008 -24.62,24.1524 0,22.3867 18.23,27.9883 43.33,27.9883 h 4 v 3.039 c 0,8.1524 -4,15.6724 -15.35,15.6724 -9.92,0 -18.72,-4.8013 -22.55,-7.9966 l -1.12,15.9886" /><path
         id="path102"
         style="fill:#ffffff;fill-opacity:1;fill-rule:nonzero;stroke:none"
         d="m 1345.62,133.668 19.83,6.082 v -23.027 h 16.46 V 102.18 h -16.46 V 59.4766 c 0,-8.7969 3.19,-11.3555 8.94,-11.3555 3.52,0 6.08,0.9609 7.52,1.7656 V 35.8125 c -3.04,-1.4414 -7.35,-2.7266 -13.27,-2.7266 -14.71,0 -23.02,6.7188 -23.02,23.9922 V 102.18 h -13.11 v 14.543 h 13.11 v 16.945" /><path
         id="path104"
         style="fill:#ffffff;fill-opacity:1;fill-rule:nonzero;stroke:none"
         d="m 1396.44,116.723 h 19.83 V 34.3711 h -19.83 z m -0.31,35.019 h 20.47 V 132.23 h -20.47 v 19.512" /><path
         id="path106"
         style="fill:#ffffff;fill-opacity:1;fill-rule:nonzero;stroke:none"
         d="m 1470.14,47.1641 c 12.8,0 15.68,14.7148 15.68,28.4648 0,13.75 -2.88,28.3091 -15.68,28.3091 -12.79,0 -15.83,-14.5591 -15.83,-28.3091 0,-13.75 3.04,-28.4648 15.83,-28.4648 z m 0,70.8319 c 16.79,0 36.14,-8.785 36.14,-42.3671 0,-34.5391 -19.35,-42.543 -36.14,-42.543 -16.79,0 -36.3,8.0039 -36.3,42.543 0,33.5821 19.51,42.3671 36.3,42.3671" /><path
         id="path108"
         style="fill:#ffffff;fill-opacity:1;fill-rule:nonzero;stroke:none"
         d="m 1521.91,103.137 c 0,5.117 -0.16,9.914 -0.63,13.586 h 18.54 c 0.16,-4.153 0.64,-8.469 0.64,-12.629 h 0.32 c 2.88,4.961 8.47,13.902 21.91,13.902 18.71,0 24.31,-13.902 24.31,-30.5312 V 34.3711 h -19.83 v 49.4141 c 0,12.6328 -3.21,17.9098 -11.36,17.9098 -10.39,0 -14.06,-8.7927 -14.06,-19.3473 V 34.3711 h -19.84 v 68.7659" /><path
         id="path110"
         style="fill:#ffffff;fill-opacity:1;fill-rule:nonzero;stroke:none"
         d="m 1602.63,53.5586 c 3.19,-1.2773 11.35,-5.4375 20.63,-5.4375 7.2,0 12.79,1.7656 12.79,8.1602 0,3.1953 -1.6,6.2343 -8.79,10.3945 l -8.16,4.8008 c -8.31,4.9531 -17.43,10.2343 -17.43,23.1836 0,11.3518 11.04,23.3358 28.46,23.3358 10.56,0 18.72,-2.711 20.63,-3.355 l -1.12,-15.348 c -4.96,1.922 -10.24,3.68 -17.43,3.68 -8,0 -11.35,-3.0355 -11.35,-7.9964 0,-4.4805 3.52,-6.875 9.27,-10.5508 l 9.76,-6.2383 c 10.24,-6.5547 15.35,-11.1914 15.35,-20.7891 0,-15.1914 -12.8,-24.3125 -30.7,-24.3125 -10.23,0 -18.72,2.4024 -22.87,4.0039 l 0.96,16.4688" /></g></g></svg>